
      <svg data-logo="logo" xmlns="http://www.w3.org/2000/svg" viewBox="0 0 240 42">
        <g id="logogram" transform="translate(0, 1) rotate(0) "><path d="M0 33L4.60606 25H12.2448C17.2569 25 21.4947 28.7103 22.1571 33.6784L23 40H13L11.5585 36.6365C10.613 34.4304 8.44379 33 6.04362 33H0Z" fill="#19183B"/><path d="M46 33L41.3939 25H33.7552C28.7431 25 24.5053 28.7103 23.8429 33.6784L23 40H33L34.4415 36.6365C35.387 34.4304 37.5562 33 39.9564 33H46Z" fill="#19183B"/><path d="M4.60606 25L18.9999 0H23L22.6032 9.52405C22.2608 17.7406 15.7455 24.3596 7.53537 24.8316L4.60606 25Z" fill="#19183B"/><path d="M41.3939 25L27.0001 0H23L23.3968 9.52405C23.7392 17.7406 30.2545 24.3596 38.4646 24.8316L41.3939 25Z" fill="#19183B"/></g>
        <g id="logotype" transform="translate(52, 7.5)"><path fill="#19183B" d="M15.70 1.01L15.70 1.01Q16.40 1.01 17.43 1.08Q18.46 1.15 19.56 1.27Q20.66 1.39 21.49 1.52Q22.31 1.64 22.63 1.78L22.63 1.78L22.21 6.50L21.86 6.50Q21.86 4.68 20.51 3.58Q19.16 2.48 16.92 2.48L16.92 2.48Q14.89 2.48 13.65 3.46Q12.41 4.44 12.34 5.84L12.34 5.84Q12.30 6.89 13 7.66Q13.70 8.43 14.79 9.09L14.79 9.09L21.47 13.43Q23.08 14.34 23.90 15.81Q24.73 17.28 24.62 19.24L24.62 19.24Q24.45 22.68 22.00 24.58Q19.55 26.49 15.35 26.49L15.35 26.49Q13.80 26.49 12.35 26.23Q10.90 25.96 9.78 25.49Q8.66 25.02 8.00 24.36L8.00 24.36Q7.71 23.59 7.75 22.50Q7.79 21.41 8.08 20.29Q8.38 19.17 8.84 18.44L8.84 18.44L9.15 18.44Q9.01 20.23 9.80 21.75Q10.59 23.27 12.11 24.16Q13.63 25.05 15.73 25.02L15.73 25.02Q18.04 24.98 19.30 23.85Q20.56 22.71 20.56 21.10L20.56 21.10Q20.56 20.02 19.91 19.14Q19.27 18.27 17.80 17.46L17.80 17.46L11.67 13.40Q9.82 12.35 8.97 10.70Q8.13 9.06 8.31 7.13L8.31 7.13Q8.48 5.31 9.39 3.93Q10.30 2.55 11.90 1.78Q13.49 1.01 15.70 1.01ZM18.46 1.36L22.66 1.36L22.59 2.09L18.46 2.09L18.46 1.36ZM43.38 5.00L48.39 5.00L48.39 26L43.38 26L43.38 5.00ZM29.10 5.00L34.14 5.00L34.14 26L29.10 26L29.10 5.00ZM33.83 14.83L43.66 14.83L43.66 16.23L33.83 16.23L33.83 14.83ZM29.10 23.80L29.21 23.80L29.21 26L26.79 26L26.79 25.65Q26.79 25.65 26.98 25.65Q27.18 25.65 27.21 25.65L27.21 25.65Q27.98 25.65 28.54 25.11Q29.10 24.57 29.10 23.80L29.10 23.80ZM34.07 26L34.07 23.80L34.14 23.80Q34.18 24.57 34.73 25.11Q35.30 25.65 36.07 25.65L36.07 25.65Q36.07 25.65 36.26 25.65Q36.45 25.65 36.45 25.65L36.45 25.65L36.45 26L34.07 26ZM34.14 7.20L34.07 7.20L34.07 5.00L36.45 5.00L36.45 5.35Q36.45 5.35 36.26 5.35Q36.07 5.35 36.07 5.35L36.07 5.35Q35.30 5.35 34.73 5.87Q34.18 6.40 34.14 7.20L34.14 7.20ZM29.21 5.00L29.21 7.20L29.10 7.20Q29.10 6.40 28.54 5.87Q27.98 5.35 27.21 5.35L27.21 5.35Q27.18 5.35 26.98 5.35Q26.79 5.35 26.79 5.35L26.79 5.35L26.79 5.00L29.21 5.00ZM43.34 23.80L43.45 23.80L43.45 26L41.07 26L41.07 25.65Q41.07 25.65 41.26 25.65Q41.46 25.65 41.46 25.65L41.46 25.65Q42.23 25.65 42.79 25.11Q43.34 24.57 43.34 23.80L43.34 23.80ZM48.28 26L48.28 23.80L48.39 23.80Q48.42 24.57 48.96 25.11Q49.51 25.65 50.31 25.65L50.31 25.65Q50.31 25.65 50.50 25.65Q50.70 25.65 50.70 25.65L50.70 25.65L50.70 26L48.28 26ZM48.42 7.20L48.32 7.20L48.32 5.00L50.73 5.00L50.73 5.35Q50.73 5.35 50.52 5.35Q50.31 5.35 50.31 5.35L50.31 5.35Q49.51 5.35 48.96 5.87Q48.42 6.40 48.42 7.20L48.42 7.20ZM43.45 5.00L43.45 7.20L43.34 7.20Q43.34 6.40 42.79 5.87Q42.23 5.35 41.46 5.35L41.46 5.35Q41.46 5.35 41.26 5.35Q41.07 5.35 41.07 5.35L41.07 5.35L41.07 5.00L43.45 5.00ZM64.63 4.54L64.63 4.54Q67.43 4.54 69.70 5.30Q71.98 6.05 73.62 7.48Q75.27 8.92 76.16 10.95Q77.05 12.98 77.05 15.53L77.05 15.53Q77.05 18.05 76.16 20.07Q75.27 22.08 73.62 23.52Q71.98 24.95 69.70 25.70Q67.43 26.45 64.63 26.45L64.63 26.45Q61.86 26.45 59.59 25.70Q57.31 24.95 55.67 23.52Q54.02 22.08 53.15 20.07Q52.27 18.05 52.27 15.53L52.27 15.53Q52.27 12.98 53.15 10.95Q54.02 8.92 55.67 7.48Q57.31 6.05 59.59 5.30Q61.86 4.54 64.63 4.54ZM64.63 25.09L64.63 25.09Q66.76 25.09 68.35 23.92Q69.95 22.75 70.80 20.61Q71.66 18.48 71.66 15.53L71.66 15.53Q71.66 12.56 70.80 10.41Q69.95 8.25 68.35 7.08Q66.76 5.91 64.63 5.91L64.63 5.91Q62.53 5.91 60.95 7.08Q59.38 8.25 58.50 10.41Q57.63 12.56 57.63 15.53L57.63 15.53Q57.63 18.48 58.50 20.61Q59.38 22.75 60.95 23.92Q62.53 25.09 64.63 25.09ZM85.48 5.00L85.48 5.00L88.84 5.00Q91.68 5.00 93.43 5.77Q95.18 6.54 96.06 7.85Q96.93 9.16 97 10.81L97 10.81Q97.07 12.87 96.18 14.41Q95.28 15.95 93.78 16.76Q92.28 17.56 90.49 17.48Q88.70 17.39 86.95 16.23L86.95 16.23L86.95 15.92Q86.95 15.92 87.32 15.92Q87.69 15.92 88.25 15.80Q88.81 15.67 89.42 15.32Q90.03 14.97 90.59 14.27Q91.16 13.57 91.47 12.38L91.47 12.38Q91.58 11.96 91.63 11.46Q91.68 10.95 91.65 10.56L91.65 10.56Q91.61 8.64 90.51 7.50Q89.41 6.36 87.45 6.36L87.45 6.36L85.80 6.36Q85.80 6.36 85.73 6.03Q85.66 5.70 85.57 5.35Q85.48 5.00 85.48 5.00ZM80.83 5.00L85.87 5.00L85.87 26L80.83 26L80.83 5.00ZM80.83 23.80L80.90 23.80L81.04 26L78.52 26L78.52 25.65Q78.56 25.65 78.73 25.65Q78.91 25.65 78.94 25.65L78.94 25.65Q79.71 25.65 80.25 25.11Q80.80 24.57 80.83 23.80L80.83 23.80ZM81.04 5.00L80.90 7.17L80.83 7.17Q80.80 6.36 80.25 5.86Q79.71 5.35 78.94 5.35L78.94 5.35Q78.87 5.35 78.71 5.35Q78.56 5.35 78.48 5.35L78.48 5.35L78.48 5.00L81.04 5.00ZM85.63 26L85.80 23.80L85.87 23.80Q85.91 24.57 86.43 25.11Q86.95 25.65 87.76 25.65L87.76 25.65Q87.83 25.65 87.99 25.65Q88.15 25.65 88.18 25.65L88.18 25.65L88.18 26L85.63 26ZM111.35 19.95L109.18 26.70L97.59 1.71L103.86 1.71L111.35 19.95ZM109.50 26.70L109.18 26.70L109.08 22.43L117.97 1.60L120.48 1.60L111.21 22.11Q111.14 22.32 110.88 22.90Q110.61 23.48 110.30 24.21Q109.98 24.95 109.76 25.63Q109.53 26.32 109.50 26.70L109.50 26.70ZM119.40 4.05L116.91 4.05Q117.37 3.00 116.81 2.43Q116.25 1.85 115.58 1.85L115.58 1.85L115.27 1.85L115.27 1.50L122.76 1.50L122.76 1.85Q122.76 1.85 122.60 1.85Q122.44 1.85 122.44 1.85L122.44 1.85Q121.67 1.85 120.82 2.36Q119.96 2.86 119.40 4.05L119.40 4.05ZM104.84 4.05L104.84 4.05L98.68 4.05Q98.12 2.86 97.26 2.36Q96.41 1.85 95.60 1.85L95.60 1.85Q95.60 1.85 95.46 1.85Q95.32 1.85 95.32 1.85L95.32 1.85L95.32 1.50L106.45 1.50L106.45 1.85L106.13 1.85Q105.47 1.85 104.96 2.43Q104.45 3.00 104.84 4.05ZM124.37 5.00L129.41 5.00L129.41 26L124.37 26L124.37 5.00ZM129.34 24.60L137.60 24.60L138.41 26L129.34 26L129.34 24.60ZM129.34 14.90L136.41 14.90L136.41 16.30L129.34 16.30L129.34 14.90ZM129.34 5.00L137.98 5.00L137.98 6.40L129.34 6.40L129.34 5.00ZM139.53 19.56L139.84 19.56L138.51 26L132.45 26L133.54 24.60Q135.04 24.60 136.22 23.99Q137.39 23.38 138.23 22.24Q139.07 21.10 139.53 19.56L139.53 19.56ZM133.40 16.23L136.41 16.23L136.41 19.31L136.06 19.31L136.06 19.04Q136.06 17.88 135.34 17.11Q134.63 16.34 133.40 16.30L133.40 16.30L133.40 16.23ZM136.06 11.89L136.41 11.89L136.41 14.97L133.40 14.97L133.40 14.90Q134.63 14.87 135.34 14.08Q136.06 13.29 136.06 12.14L136.06 12.14L136.06 11.89ZM134.45 6.33L137.98 6.33L137.98 10.04L137.63 10.04L137.63 9.72Q137.63 8.18 136.81 7.31Q135.99 6.43 134.45 6.40L134.45 6.40L134.45 6.33ZM137.98 4.47L137.98 4.47L137.98 5.31L134.31 5.00Q135.32 5.00 136.44 4.81Q137.56 4.61 137.98 4.47ZM124.37 23.80L124.44 23.80L124.61 26L122.02 26L122.02 25.65Q122.02 25.65 122.23 25.65Q122.44 25.65 122.48 25.65L122.48 25.65Q123.25 25.65 123.79 25.11Q124.33 24.57 124.37 23.80L124.37 23.80ZM124.61 5.00L124.44 7.20L124.37 7.20Q124.33 6.40 123.79 5.87Q123.25 5.35 122.48 5.35L122.48 5.35Q122.44 5.35 122.23 5.35Q122.02 5.35 122.02 5.35L122.02 5.35L122.02 5.00L124.61 5.00ZM148.34 5.00L148.34 5.00L152.13 5.00Q153.56 5.00 154.93 5.30Q156.29 5.59 157.38 6.24Q158.46 6.89 159.11 7.99Q159.75 9.09 159.75 10.74L159.75 10.74Q159.75 11.96 159.25 13.17Q158.74 14.38 157.67 15.25Q156.60 16.13 154.89 16.41L154.89 16.41Q155.91 16.73 156.83 17.63Q157.76 18.54 158.28 19.35L158.28 19.35Q158.43 19.63 158.78 20.24Q159.13 20.86 159.67 21.64Q160.21 22.43 160.81 23.27L160.81 23.27Q161.50 24.21 162.03 24.72Q162.56 25.23 163.12 25.44Q163.68 25.65 164.41 25.65L164.41 25.65L164.41 26L161.47 26Q159.58 26 158.27 25.72Q156.95 25.44 155.99 24.69Q155.03 23.93 154.22 22.64L154.22 22.64Q153.91 22.18 153.56 21.54Q153.21 20.89 152.86 20.23Q152.51 19.56 152.25 18.93Q151.98 18.30 151.88 17.88L151.88 17.88Q151.43 16.76 150.85 16.25Q150.27 15.74 149.78 15.74L149.78 15.74L149.78 15.43Q149.78 15.43 150.03 15.43Q150.27 15.43 150.66 15.43L150.66 15.43Q151.39 15.43 152.11 15.17Q152.82 14.90 153.42 14.15Q154.01 13.40 154.29 11.93L154.29 11.93Q154.37 11.72 154.42 11.33Q154.47 10.95 154.44 10.46L154.44 10.46Q154.37 9.16 153.96 8.38Q153.56 7.59 152.97 7.19Q152.37 6.78 151.76 6.63Q151.15 6.47 150.69 6.47L150.69 6.47Q150.03 6.43 149.48 6.45Q148.94 6.47 148.66 6.43L148.66 6.43Q148.63 6.43 148.56 6.07Q148.48 5.70 148.41 5.35Q148.34 5.00 148.34 5.00ZM143.62 5.00L148.69 5.00L148.69 26L143.62 26L143.62 5.00ZM143.66 23.80L143.72 23.80L143.87 26L141.34 26L141.34 25.65Q141.38 25.65 141.54 25.65Q141.69 25.65 141.76 25.65L141.76 25.65Q142.53 25.65 143.08 25.11Q143.62 24.57 143.66 23.80L143.66 23.80ZM143.87 5.00L143.72 7.17L143.66 7.17Q143.62 6.36 143.08 5.86Q142.53 5.35 141.80 5.35L141.80 5.35Q141.69 5.35 141.54 5.35Q141.38 5.35 141.34 5.35L141.34 5.35L141.34 5.00L143.87 5.00ZM148.45 26L148.63 23.80L148.69 23.80Q148.69 24.67 149.31 25.16Q149.92 25.65 150.62 25.65L150.62 25.65Q150.62 25.65 150.76 25.65Q150.90 25.65 150.97 25.65L150.97 25.65L150.97 26L148.45 26ZM172.14 10.46L174.21 4.05L184.57 25.82L178.66 25.82L172.14 10.46ZM165.11 23.69L167.63 23.69Q167.24 24.63 167.73 25.14Q168.22 25.65 168.82 25.65L168.82 25.65L169.10 25.65L169.10 26L162.10 26L162.10 25.65Q162.10 25.65 162.24 25.65Q162.38 25.65 162.38 25.65L162.38 25.65Q163.08 25.65 163.85 25.21Q164.62 24.77 165.11 23.69L165.11 23.69ZM173.93 4.05L174.21 4.05L174.28 8.25L166.69 25.89L164.09 25.89L172.28 8.29Q172.35 8.08 172.60 7.54Q172.84 6.99 173.13 6.31Q173.41 5.63 173.65 5.02Q173.89 4.40 173.93 4.05L173.93 4.05ZM168.33 19.14L177.25 19.14L177.25 20.50L168.33 20.50L168.33 19.14ZM177.78 23.69L177.78 23.69L183.55 23.69Q184.08 24.77 184.85 25.21Q185.62 25.65 186.32 25.65L186.32 25.65Q186.32 25.65 186.46 25.65Q186.60 25.65 186.60 25.65L186.60 25.65L186.60 26L176.31 26L176.31 25.65L176.59 25.65Q177.19 25.65 177.67 25.14Q178.16 24.63 177.78 23.69Z"/></g>
        
      </svg>
    